####
#
# OBJ File Generated by Meshlab
#
####
# Object hand simplified.obj
#
# Vertices: 81
# Faces: 162
#
####
mtllib ./hand simplified.obj.mtl

vn -0.223000 0.526639 -0.820319
v 0.298227 -0.307406 0.205684
vn 0.016915 -0.989101 -0.146264
v -0.048354 -0.009985 0.242458
vn -0.983089 0.158704 -0.091371
v 0.298441 -0.322091 -0.022505
vn -0.543766 -0.722997 -0.426138
v 0.379566 -0.373094 -0.105271
vn 0.035527 0.852576 0.521395
v -0.047261 0.153583 0.198203
vn 0.682539 -0.495597 -0.537145
v 0.409548 -0.075658 0.227769
vn -0.498211 -0.867030 0.006659
v -0.311461 -0.129062 -0.285708
vn -0.349088 -0.878202 -0.326955
v 0.010644 -0.092727 0.314284
vn -0.146266 -0.914225 -0.377887
v -0.019525 -0.096960 -0.708410
vn -0.824808 -0.189771 0.532615
v -0.247761 0.037540 0.093007
vn -0.268796 -0.914248 0.303149
v -0.018492 -0.075764 -0.391781
vn 0.061887 -0.989650 0.129475
v -0.247496 -0.121162 -0.159056
vn -0.165123 -0.983410 0.075099
v -0.347324 -0.104558 -0.014578
vn -0.071899 -0.992936 0.094383
v 0.325176 -0.479477 0.171213
vn -0.918532 -0.373414 -0.129846
v -0.401319 -0.042216 -0.116445
vn 0.628573 -0.053624 0.775900
v -0.435975 -0.127591 0.515721
vn -0.410677 -0.582938 -0.701090
v -0.290646 0.026880 -0.944641
vn -0.105478 -0.985235 0.134858
v -0.002070 -0.239288 0.880345
vn 0.200463 -0.969619 0.140195
v -0.057019 0.000833 -0.128960
vn 0.144923 -0.987798 0.057039
v -0.185913 -0.152333 -0.485867
vn -0.955342 -0.226259 0.190076
v -0.585864 -0.114012 0.506658
vn -0.208874 -0.946659 -0.245374
v 0.178207 -0.032239 0.235939
vn 0.912401 0.210485 0.351027
v -0.114913 -0.016517 0.647406
vn 0.269878 -0.490739 -0.828457
v 0.151579 0.053549 -0.942227
vn -0.440162 -0.897917 0.001615
v 0.142390 -0.259323 -0.453252
vn -0.156547 -0.942332 0.295811
v -0.519612 -0.195213 0.467135
vn -0.995709 -0.037916 0.084418
v 0.179762 -0.205892 0.364803
vn 0.149395 -0.948246 0.280198
v -0.235276 -0.112398 0.785976
vn 0.063899 -0.945377 -0.319655
v 0.412648 -0.306600 -0.300914
vn 0.636004 -0.763007 -0.115410
v 0.543998 -0.400517 -0.028691
vn -0.007586 -0.993804 0.110884
v -0.159516 -0.008428 0.151472
vn 0.029493 -0.924882 -0.379108
v 0.247821 -0.263095 -0.532030
vn -0.334294 -0.897916 0.286348
v 0.103946 -0.005987 -0.139599
vn -0.999978 -0.004257 0.005070
v -0.337509 0.149942 -0.652292
vn -0.898532 -0.358715 -0.252911
v -0.339692 -0.032850 -0.581733
vn -0.653498 0.728904 0.204059
v -0.298445 0.407146 -0.798939
vn -0.733719 0.656797 0.173996
v -0.271500 0.275273 -0.588035
vn -0.095599 0.954165 0.283600
v -0.041284 0.389841 -0.532678
vn -0.988271 -0.072151 0.134587
v -0.313244 -0.046519 0.762305
vn -0.105693 0.888502 0.446536
v 0.054636 0.320908 0.071339
vn 0.474504 -0.619924 -0.624932
v 0.322905 -0.180462 -0.627065
vn -0.459584 0.129789 0.878600
v -0.102973 -0.149875 0.925367
vn 0.569153 0.466738 0.676920
v 0.078844 -0.110888 0.876586
vn -0.104637 -0.812027 -0.574163
v 0.141084 -0.187601 -0.655317
vn 0.174497 0.788662 0.589545
v 0.246784 0.221013 0.148284
vn -0.888819 -0.199824 -0.412398
v 0.207646 -0.386096 0.238960
vn 0.486750 0.503899 0.713555
v 0.520218 -0.273036 0.080353
vn -0.258283 -0.940702 -0.219932
v -0.208622 -0.053056 0.290379
vn -0.473192 -0.809324 -0.347973
v -0.268695 -0.115556 -0.643437
vn 0.198443 -0.694487 -0.691598
v 0.175254 -0.042322 -0.778440
vn 0.943286 0.183124 0.276908
v 0.501952 0.009743 -0.254922
vn 0.954956 -0.146755 -0.257919
v 0.569334 -0.173049 -0.252089
vn 0.164657 -0.588997 0.791183
v 0.175160 -0.063751 0.350855
vn -0.151201 0.949802 0.273888
v -0.220914 0.071218 0.628081
vn -0.720184 -0.452009 0.526329
v 0.312374 -0.210221 -0.111533
vn 0.900203 0.364009 0.239023
v 0.429805 0.210980 0.058425
vn 0.019341 -0.868063 -0.496078
v -0.160746 -0.022287 -0.805053
vn -0.477302 -0.529344 0.701412
v 0.213381 -0.322400 0.404451
vn 0.769511 -0.168867 0.615903
v 0.407410 -0.204810 0.433013
vn -0.259341 0.347445 0.901124
v 0.273753 -0.030872 0.460620
vn -0.361025 0.916016 0.174858
v -0.400838 0.078212 0.077677
vn -0.315222 0.936180 0.155571
v -0.126747 0.324457 -0.166107
vn -0.773854 0.611651 0.164417
v -0.358181 0.103984 -0.077406
vn -0.771479 0.595105 0.225100
v -0.232281 0.156717 0.158830
vn -0.954448 0.255037 0.154872
v -0.059095 0.016591 0.529999
vn -0.320424 0.910984 0.259686
v -0.140442 0.276376 0.004102
vn 0.150952 0.810740 0.565609
v 0.111626 0.187961 0.272876
vn 0.080994 0.402922 0.911644
v -0.229084 0.013010 0.880200
vn 0.830915 0.538662 -0.139368
v 0.329994 0.216186 -0.621879
vn 0.788456 0.604117 -0.115674
v 0.464149 0.215061 -0.238938
vn 0.753200 0.455566 0.474499
v 0.411633 0.050302 0.319327
vn -0.973350 0.218682 -0.069059
v -0.389238 0.093301 -0.431095
vn 0.221370 0.909995 0.350578
v -0.127665 0.153002 0.385361
vn 0.338687 -0.896821 0.284610
v 0.294756 -0.049648 0.004275
vn 0.155352 0.971327 0.179971
v 0.203613 0.336994 -0.040093
vn 0.873237 -0.082526 -0.480256
v 0.367841 0.035901 -0.673261
vn 0.328300 0.940217 0.090615
v 0.132941 0.363440 -0.554813
vn 0.506844 0.855962 -0.102164
v 0.183710 0.412141 -0.831377
vn 0.635162 0.226800 -0.738330
v 0.275173 0.202815 -0.898218
vn -0.802507 0.259552 -0.537229
v -0.457871 0.215919 -0.882833
vn -0.033493 0.655964 -0.754049
v -0.042352 0.482471 -0.806103
# 81 vertices, 0 vertices normals


usemtl material_0
f 25//25 44//44 32//32
f 34//34 36//36 80//80
f 1//1 6//6 59//59
f 1//1 27//27 6//6
f 2//2 22//22 8//8
f 40//40 67//67 45//45
f 48//48 10//10 31//31
f 22//22 74//74 6//6
f 37//37 63//63 62//62
f 40//40 66//66 5//5
f 39//39 68//68 54//54
f 38//38 62//62 77//77
f 77//77 62//62 75//75
f 70//70 77//77 75//75
f 66//66 40//40 75//75
f 63//63 72//72 15//15
f 61//61 10//10 63//63
f 45//45 71//71 56//56
f 26//26 13//13 16//16
f 50//50 76//76 41//41
f 53//53 60//60 45//45
f 61//61 16//16 10//10
f 70//70 69//69 77//77
f 8//8 18//18 65//65
f 75//75 56//56 70//70
f 67//67 53//53 45//45
f 65//65 5//5 2//2
f 21//21 61//61 15//15
f 54//54 23//23 73//73
f 54//54 68//68 23//23
f 70//70 76//76 69//69
f 51//51 76//76 70//70
f 79//79 69//69 76//76
f 23//23 2//2 5//5
f 74//74 51//51 56//56
f 14//14 47//47 1//1
f 59//59 14//14 1//1
f 74//74 56//56 6//6
f 33//33 22//22 19//19
f 31//31 10//10 13//13
f 4//4 3//3 55//55
f 74//74 22//22 33//33
f 51//51 52//52 76//76
f 1//1 47//47 3//3
f 13//13 21//21 15//15
f 36//36 34//34 37//37
f 38//38 36//36 37//37
f 38//38 37//37 62//62
f 27//27 59//59 60//60
f 64//64 63//63 10//10
f 13//13 15//15 12//12
f 71//71 60//60 59//59
f 73//73 23//23 5//5
f 24//24 79//79 76//76
f 50//50 24//24 76//76
f 29//29 55//55 25//25
f 20//20 49//49 9//9
f 55//55 51//51 74//74
f 44//44 25//25 9//9
f 67//67 40//40 5//5
f 30//30 4//4 29//29
f 22//22 6//6 27//27
f 22//22 53//53 8//8
f 46//46 27//27 1//1
f 11//11 25//25 55//55
f 21//21 13//13 26//26
f 65//65 2//2 8//8
f 46//46 14//14 58//58
f 28//28 39//39 48//48
f 18//18 53//53 43//43
f 76//76 52//52 41//41
f 30//30 29//29 52//52
f 19//19 11//11 33//33
f 23//23 68//68 28//28
f 25//25 32//32 29//29
f 31//31 13//13 12//12
f 19//19 22//22 31//31
f 63//63 37//37 72//72
f 58//58 14//14 59//59
f 53//53 22//22 27//27
f 48//48 2//2 28//28
f 8//8 53//53 18//18
f 33//33 55//55 74//74
f 64//64 66//66 63//63
f 51//51 55//55 47//47
f 72//72 34//34 35//35
f 64//64 73//73 66//66
f 58//58 59//59 27//27
f 56//56 75//75 45//45
f 5//5 66//66 73//73
f 71//71 45//45 60//60
f 11//11 55//55 33//33
f 18//18 43//43 42//42
f 2//2 23//23 28//28
f 79//79 78//78 69//69
f 4//4 55//55 29//29
f 10//10 16//16 13//13
f 52//52 51//51 47//47
f 30//30 52//52 47//47
f 43//43 53//53 67//67
f 59//59 6//6 71//71
f 60//60 53//53 27//27
f 73//73 64//64 54//54
f 67//67 5//5 65//65
f 70//70 56//56 51//51
f 56//56 71//71 6//6
f 17//17 24//24 57//57
f 50//50 57//57 24//24
f 49//49 57//57 9//9
f 57//57 50//50 9//9
f 50//50 41//41 44//44
f 44//44 41//41 32//32
f 31//31 12//12 19//19
f 31//31 22//22 2//2
f 48//48 31//31 2//2
f 34//34 80//80 17//17
f 3//3 4//4 14//14
f 1//1 14//14 46//46
f 63//63 15//15 61//61
f 29//29 32//32 41//41
f 52//52 29//29 41//41
f 25//25 11//11 9//9
f 49//49 7//7 35//35
f 7//7 15//15 35//35
f 12//12 15//15 7//7
f 1//1 3//3 14//14
f 42//42 65//65 18//18
f 28//28 68//68 39//39
f 17//17 49//49 34//34
f 49//49 35//35 34//34
f 35//35 15//15 72//72
f 48//48 39//39 10//10
f 21//21 26//26 16//16
f 20//20 19//19 12//12
f 30//30 47//47 14//14
f 19//19 20//20 11//11
f 9//9 11//11 20//20
f 12//12 7//7 20//20
f 14//14 4//4 30//30
f 49//49 20//20 7//7
f 10//10 39//39 64//64
f 3//3 47//47 55//55
f 58//58 27//27 46//46
f 34//34 72//72 37//37
f 63//63 66//66 62//62
f 64//64 39//39 54//54
f 42//42 43//43 65//65
f 78//78 81//81 38//38
f 38//38 77//77 78//78
f 62//62 66//66 75//75
f 38//38 81//81 36//36
f 50//50 44//44 9//9
f 75//75 40//40 45//45
f 17//17 57//57 49//49
f 61//61 21//21 16//16
f 67//67 65//65 43//43
f 77//77 69//69 78//78
f 81//81 80//80 36//36
f 81//81 79//79 24//24
f 17//17 80//80 81//81
f 78//78 79//79 81//81
f 17//17 81//81 24//24
# 162 faces, 0 coords texture

# End of File
